<svg width="170" height="32" viewBox="0 0 170 32" fill="none" xmlns="http://www.w3.org/2000/svg">
<g clip-path="url(#clip0_162_613)">
<path d="M14.8141 5.24023C10.8638 5.60935 7.22285 8.7276 6.038 12.4527C4.31644 17.8695 7.08868 21.8098 10.3658 25.7863C10.9571 26.5041 15.5396 31.5993 15.958 31.5993C17.675 30.107 19.3011 28.4063 20.7906 26.6717C22.7169 24.4276 25.364 21.2029 26.069 18.3224C27.8202 11.1506 22.2325 4.54955 14.8164 5.24023H14.8141ZM15.9626 22.3238C12.2784 22.3238 9.29009 19.3505 9.29009 15.6797C9.29009 12.0089 12.2761 9.03558 15.9626 9.03558C19.649 9.03558 22.635 12.0089 22.635 15.6797C22.635 19.3505 19.649 22.3238 15.9626 22.3238Z" fill="white" style="fill:white;fill-opacity:1;"/>
<path d="M20.0856 15.48L17.791 14.9659C17.7045 14.9456 17.6613 14.8459 17.7091 14.7712L18.9644 12.7897C19.0372 12.6742 18.903 12.5384 18.7848 12.6108L16.7971 13.8631C16.7221 13.9107 16.622 13.8699 16.6016 13.7816L16.0808 11.4967C16.0512 11.3631 15.8579 11.3631 15.8283 11.4967L15.3121 13.7816C15.2916 13.8676 15.1916 13.9107 15.1165 13.8631L13.1266 12.6131C13.0106 12.5406 12.8742 12.6742 12.947 12.792L14.2046 14.7712C14.2523 14.8459 14.2114 14.9456 14.1227 14.9659L11.828 15.4845C11.6939 15.514 11.6939 15.7064 11.828 15.7359L14.1227 16.2499C14.2091 16.2703 14.2523 16.3699 14.2046 16.4447L12.9492 18.4261C12.8764 18.5416 13.0106 18.6775 13.1289 18.605L15.1165 17.3527C15.1916 17.3052 15.2916 17.346 15.3121 17.4343L15.8329 19.7192C15.8625 19.8528 16.0558 19.8528 16.0853 19.7192L16.6016 17.4343C16.622 17.3482 16.7221 17.3052 16.7971 17.3527L18.7871 18.6028C18.903 18.6752 19.0395 18.5416 18.9667 18.4239L17.7091 16.4447C17.6613 16.3699 17.7023 16.2703 17.791 16.2499L20.0856 15.7314C20.2198 15.7019 20.2198 15.5094 20.0856 15.48Z" fill="white" style="fill:white;fill-opacity:1;"/>
<path d="M10.8092 30.9561C10.6637 30.9561 10.5136 30.9311 10.368 30.8768C7.35245 29.7445 4.77579 27.7563 2.91323 25.1226C1.00746 22.4256 0 19.253 0 15.9468C0 7.15363 7.18416 0 16.0148 0C19.3511 0 22.5486 1.01224 25.2617 2.92577C25.8257 3.32432 25.9576 4.10105 25.5596 4.66039C25.1593 5.22199 24.3793 5.35334 23.8176 4.95704C21.5297 3.34244 18.8303 2.49098 16.0171 2.49098C8.56459 2.49098 2.50161 8.5282 2.50161 15.949C2.50161 21.5198 6.0175 26.5833 11.2527 28.5466C11.8985 28.7889 12.226 29.5068 11.9827 30.1499C11.7939 30.6481 11.3186 30.9561 10.8115 30.9561H10.8092Z" fill="white" style="fill:white;fill-opacity:1;"/>
<path d="M20.9271 31.0624C20.4108 31.0624 19.9287 30.7431 19.7468 30.2313C19.5171 29.5837 19.8582 28.8726 20.5109 28.6439C25.9053 26.7508 29.5303 21.6488 29.5303 15.949C29.5303 13.3901 28.8071 10.9014 27.4381 8.75006C27.0674 8.17034 27.2402 7.4004 27.8247 7.03128C28.4069 6.66216 29.1801 6.83427 29.5508 7.41625C31.1745 9.96611 32.0342 12.9168 32.0342 15.949C32.0342 22.7018 27.7383 28.7481 21.3455 30.9922C21.2091 31.0398 21.0681 31.0624 20.9293 31.0624H20.9271Z" fill="white" style="fill:white;fill-opacity:1;"/>
<path d="M147.489 27.24C146.433 27.24 145.513 27.016 144.729 26.568C143.961 26.104 143.369 25.472 142.953 24.672C142.553 23.856 142.353 22.936 142.353 21.912C142.353 20.872 142.553 19.888 142.953 18.96C143.353 18.032 143.913 17.216 144.633 16.512C145.353 15.792 146.193 15.232 147.153 14.832C148.113 14.416 149.153 14.208 150.273 14.208C151.185 14.208 151.977 14.344 152.649 14.616C153.321 14.888 153.841 15.288 154.209 15.816C154.577 16.328 154.761 16.96 154.761 17.712C154.761 19.04 154.153 20.048 152.937 20.736C151.737 21.424 149.929 21.768 147.513 21.768C147.033 21.768 146.513 21.76 145.953 21.744C145.393 21.712 144.785 21.664 144.129 21.6L144.537 19.584C145.113 19.632 145.641 19.672 146.121 19.704C146.601 19.72 147.073 19.728 147.537 19.728C148.577 19.728 149.393 19.656 149.985 19.512C150.593 19.368 151.033 19.16 151.305 18.888C151.577 18.616 151.713 18.296 151.713 17.928C151.713 17.608 151.633 17.352 151.473 17.16C151.313 16.952 151.089 16.8 150.801 16.704C150.529 16.592 150.201 16.536 149.817 16.536C149.193 16.536 148.617 16.688 148.089 16.992C147.577 17.28 147.129 17.68 146.745 18.192C146.361 18.704 146.065 19.288 145.857 19.944C145.649 20.6 145.545 21.296 145.545 22.032C145.545 22.576 145.633 23.072 145.809 23.52C146.001 23.952 146.281 24.288 146.649 24.528C147.017 24.768 147.489 24.888 148.065 24.888C148.705 24.888 149.305 24.736 149.865 24.432C150.441 24.128 150.897 23.704 151.233 23.16L153.777 23.952C153.361 24.592 152.817 25.16 152.145 25.656C151.473 26.152 150.737 26.544 149.937 26.832C149.137 27.104 148.321 27.24 147.489 27.24Z" fill="white" style="fill:white;fill-opacity:1;"/>
<path d="M137.56 27.1925C136.76 27.1925 136.136 27.0085 135.688 26.6405C135.256 26.2565 135.04 25.7125 135.04 25.0085C135.04 24.8645 135.048 24.7205 135.064 24.5765C135.096 24.4165 135.12 24.2565 135.136 24.0965L138.256 9.48047H141.448L138.592 22.9685C138.576 23.0485 138.56 23.1285 138.544 23.2085C138.544 23.2885 138.544 23.3685 138.544 23.4485C138.544 24.1045 138.872 24.4325 139.528 24.4325C139.704 24.4325 139.904 24.4005 140.128 24.3365C140.368 24.2725 140.592 24.1925 140.8 24.0965L140.704 26.5445C140.256 26.7525 139.736 26.9125 139.144 27.0245C138.552 27.1365 138.024 27.1925 137.56 27.1925Z" fill="white" style="fill:white;fill-opacity:1;"/>
<path d="M124.504 27.24C123.576 27.24 122.776 27.016 122.104 26.568C121.448 26.104 120.936 25.488 120.568 24.72C120.216 23.936 120.04 23.056 120.04 22.08C120.04 21.04 120.224 20.048 120.592 19.104C120.96 18.16 121.464 17.32 122.104 16.584C122.76 15.848 123.496 15.272 124.312 14.856C125.144 14.424 126.016 14.208 126.928 14.208C127.792 14.208 128.528 14.44 129.136 14.904C129.744 15.352 130.16 15.928 130.384 16.632L130.864 14.472H134.08L132.208 23.304C132.192 23.384 132.176 23.464 132.16 23.544C132.144 23.608 132.136 23.672 132.136 23.736C132.136 24.072 132.328 24.248 132.712 24.264L132.136 27C131.848 27.048 131.592 27.088 131.368 27.12C131.16 27.152 130.976 27.168 130.816 27.168C130.24 27.168 129.792 27.048 129.472 26.808C129.152 26.568 128.992 26.208 128.992 25.728C128.992 25.664 129 25.592 129.016 25.512C129.032 25.416 129.048 25.312 129.064 25.2C129.08 25.072 129.104 24.944 129.136 24.816C128.528 25.6 127.808 26.2 126.976 26.616C126.144 27.032 125.32 27.24 124.504 27.24ZM125.944 24.504C126.216 24.504 126.504 24.456 126.808 24.36C127.112 24.248 127.408 24.104 127.696 23.928C128 23.736 128.28 23.512 128.536 23.256C128.792 22.984 129.008 22.696 129.184 22.392L129.808 19.392C129.76 18.928 129.616 18.512 129.376 18.144C129.136 17.776 128.84 17.488 128.488 17.28C128.136 17.056 127.76 16.944 127.36 16.944C126.848 16.944 126.352 17.08 125.872 17.352C125.408 17.608 124.992 17.96 124.624 18.408C124.256 18.84 123.96 19.336 123.736 19.896C123.528 20.44 123.424 21 123.424 21.576C123.424 22.12 123.528 22.616 123.736 23.064C123.944 23.512 124.232 23.864 124.6 24.12C124.984 24.376 125.432 24.504 125.944 24.504Z" fill="white" style="fill:white;fill-opacity:1;"/>
<path d="M111.309 27.1918C110.109 27.1918 108.949 26.9998 107.829 26.6158C106.709 26.2158 105.757 25.6718 104.973 24.9838L107.037 22.1278C107.133 22.2718 107.325 22.4638 107.613 22.7038C107.901 22.9278 108.269 23.1598 108.717 23.3998C109.165 23.6238 109.669 23.8158 110.229 23.9758C110.789 24.1358 111.381 24.2158 112.005 24.2158C112.645 24.2158 113.173 24.1358 113.589 23.9758C114.021 23.7998 114.341 23.5598 114.549 23.2558C114.757 22.9358 114.861 22.5678 114.861 22.1518C114.861 21.7198 114.701 21.3758 114.381 21.1198C114.077 20.8638 113.653 20.6398 113.109 20.4478C112.565 20.2398 111.941 20.0238 111.237 19.7998C110.437 19.5438 109.765 19.2558 109.221 18.9358C108.677 18.6158 108.261 18.2318 107.973 17.7838C107.701 17.3198 107.565 16.7678 107.565 16.1278C107.565 15.1358 107.757 14.2478 108.141 13.4638C108.541 12.6798 109.077 12.0238 109.749 11.4958C110.437 10.9518 111.213 10.5438 112.077 10.2718C112.941 9.98384 113.845 9.83984 114.789 9.83984C115.541 9.83984 116.237 9.92784 116.877 10.1038C117.533 10.2798 118.125 10.5118 118.653 10.7998C119.197 11.0878 119.669 11.3998 120.069 11.7358L118.029 14.4238C117.981 14.3118 117.837 14.1598 117.597 13.9678C117.357 13.7758 117.053 13.5918 116.685 13.4158C116.317 13.2398 115.909 13.0878 115.461 12.9598C115.013 12.8158 114.549 12.7438 114.069 12.7438C113.445 12.7438 112.909 12.8398 112.461 13.0318C112.029 13.2238 111.709 13.4878 111.501 13.8238C111.293 14.1598 111.189 14.5598 111.189 15.0238C111.189 15.3758 111.309 15.6718 111.549 15.9118C111.805 16.1518 112.165 16.3598 112.629 16.5358C113.093 16.6958 113.661 16.8798 114.333 17.0878C115.181 17.3278 115.917 17.6158 116.541 17.9518C117.181 18.2878 117.677 18.7118 118.029 19.2238C118.381 19.7198 118.557 20.3598 118.557 21.1438C118.557 22.2158 118.349 23.1358 117.933 23.9038C117.533 24.6718 116.989 25.2958 116.301 25.7758C115.613 26.2558 114.837 26.6158 113.973 26.8558C113.125 27.0798 112.237 27.1918 111.309 27.1918Z" fill="white" style="fill:white;fill-opacity:1;"/>
<path d="M97.8247 27.24C96.7687 27.24 95.8487 27.016 95.0647 26.568C94.2967 26.104 93.7047 25.472 93.2887 24.672C92.8887 23.856 92.6887 22.936 92.6887 21.912C92.6887 20.872 92.8887 19.888 93.2887 18.96C93.6887 18.032 94.2487 17.216 94.9687 16.512C95.6887 15.792 96.5287 15.232 97.4887 14.832C98.4487 14.416 99.4887 14.208 100.609 14.208C101.521 14.208 102.313 14.344 102.985 14.616C103.657 14.888 104.177 15.288 104.545 15.816C104.913 16.328 105.097 16.96 105.097 17.712C105.097 19.04 104.489 20.048 103.273 20.736C102.073 21.424 100.265 21.768 97.8487 21.768C97.3687 21.768 96.8487 21.76 96.2887 21.744C95.7287 21.712 95.1207 21.664 94.4647 21.6L94.8727 19.584C95.4487 19.632 95.9767 19.672 96.4567 19.704C96.9367 19.72 97.4087 19.728 97.8727 19.728C98.9127 19.728 99.7287 19.656 100.321 19.512C100.929 19.368 101.369 19.16 101.641 18.888C101.913 18.616 102.049 18.296 102.049 17.928C102.049 17.608 101.969 17.352 101.809 17.16C101.649 16.952 101.425 16.8 101.137 16.704C100.865 16.592 100.537 16.536 100.153 16.536C99.5287 16.536 98.9527 16.688 98.4247 16.992C97.9127 17.28 97.4647 17.68 97.0807 18.192C96.6967 18.704 96.4007 19.288 96.1927 19.944C95.9847 20.6 95.8807 21.296 95.8807 22.032C95.8807 22.576 95.9687 23.072 96.1447 23.52C96.3367 23.952 96.6167 24.288 96.9847 24.528C97.3527 24.768 97.8247 24.888 98.4007 24.888C99.0407 24.888 99.6407 24.736 100.201 24.432C100.777 24.128 101.233 23.704 101.569 23.16L104.113 23.952C103.697 24.592 103.153 25.16 102.481 25.656C101.809 26.152 101.073 26.544 100.273 26.832C99.4727 27.104 98.6567 27.24 97.8247 27.24Z" fill="white" style="fill:white;fill-opacity:1;"/>
<path d="M83.9335 27.1918C82.7335 27.1918 81.5735 26.9998 80.4535 26.6158C79.3335 26.2158 78.3815 25.6718 77.5975 24.9838L79.6615 22.1278C79.7575 22.2718 79.9495 22.4638 80.2375 22.7038C80.5255 22.9278 80.8935 23.1598 81.3415 23.3998C81.7895 23.6238 82.2935 23.8158 82.8535 23.9758C83.4135 24.1358 84.0055 24.2158 84.6295 24.2158C85.2695 24.2158 85.7975 24.1358 86.2135 23.9758C86.6455 23.7998 86.9655 23.5598 87.1735 23.2558C87.3815 22.9358 87.4855 22.5678 87.4855 22.1518C87.4855 21.7198 87.3255 21.3758 87.0055 21.1198C86.7015 20.8638 86.2775 20.6398 85.7335 20.4478C85.1895 20.2398 84.5655 20.0238 83.8615 19.7998C83.0615 19.5438 82.3895 19.2558 81.8455 18.9358C81.3015 18.6158 80.8855 18.2318 80.5975 17.7838C80.3255 17.3198 80.1895 16.7678 80.1895 16.1278C80.1895 15.1358 80.3815 14.2478 80.7655 13.4638C81.1655 12.6798 81.7015 12.0238 82.3735 11.4958C83.0615 10.9518 83.8375 10.5438 84.7015 10.2718C85.5655 9.98384 86.4695 9.83984 87.4135 9.83984C88.1655 9.83984 88.8615 9.92784 89.5015 10.1038C90.1575 10.2798 90.7495 10.5118 91.2775 10.7998C91.8215 11.0878 92.2935 11.3998 92.6935 11.7358L90.6535 14.4238C90.6055 14.3118 90.4615 14.1598 90.2215 13.9678C89.9815 13.7758 89.6775 13.5918 89.3095 13.4158C88.9415 13.2398 88.5335 13.0878 88.0855 12.9598C87.6375 12.8158 87.1735 12.7438 86.6935 12.7438C86.0695 12.7438 85.5335 12.8398 85.0855 13.0318C84.6535 13.2238 84.3335 13.4878 84.1255 13.8238C83.9175 14.1598 83.8135 14.5598 83.8135 15.0238C83.8135 15.3758 83.9335 15.6718 84.1735 15.9118C84.4295 16.1518 84.7895 16.3598 85.2535 16.5358C85.7175 16.6958 86.2855 16.8798 86.9575 17.0878C87.8055 17.3278 88.5415 17.6158 89.1655 17.9518C89.8055 18.2878 90.3015 18.7118 90.6535 19.2238C91.0055 19.7198 91.1815 20.3598 91.1815 21.1438C91.1815 22.2158 90.9735 23.1358 90.5575 23.9038C90.1575 24.6718 89.6135 25.2958 88.9255 25.7758C88.2375 26.2558 87.4615 26.6158 86.5975 26.8558C85.7495 27.0798 84.8615 27.1918 83.9335 27.1918Z" fill="white" style="fill:white;fill-opacity:1;"/>
<path d="M64.5768 30.0238C65.2168 29.9758 65.7368 29.8958 66.1368 29.7838C66.5528 29.6718 66.9128 29.4878 67.2168 29.2318C67.5208 28.9918 67.8328 28.6478 68.1528 28.1998L68.8488 27.2638L66.7608 14.4238H70.0488L71.1288 24.2158L71.9448 22.8718C72.4408 22.0558 72.8728 21.2958 73.2408 20.5918C73.6248 19.8718 73.9528 19.1838 74.2248 18.5278C74.5128 17.8558 74.7608 17.1838 74.9688 16.5118C75.1768 15.8398 75.3688 15.1438 75.5448 14.4238H78.6648C78.4568 15.1918 78.2248 15.9198 77.9688 16.6078C77.7128 17.2798 77.4088 17.9838 77.0568 18.7198C76.7048 19.4558 76.2568 20.2878 75.7128 21.2158C75.1848 22.1438 74.5208 23.2478 73.7208 24.5278L71.8008 27.6238C71.2408 28.5198 70.6968 29.2718 70.1688 29.8798C69.6568 30.5038 69.1288 31.0078 68.5848 31.3918C68.0568 31.7758 67.4968 32.0478 66.9048 32.2078C66.3128 32.3838 65.6648 32.4798 64.9608 32.4958L64.5768 30.0238Z" fill="white" style="fill:white;fill-opacity:1;"/>
<path d="M57.6316 27.24C56.4156 27.24 55.4156 27 54.6316 26.52C53.8636 26.04 53.2956 25.4 52.9276 24.6C52.5596 23.784 52.3756 22.888 52.3756 21.912C52.3756 20.888 52.5596 19.912 52.9276 18.984C53.3116 18.056 53.8476 17.232 54.5356 16.512C55.2236 15.792 56.0316 15.232 56.9596 14.832C57.9036 14.416 58.9356 14.208 60.0556 14.208C61.2716 14.208 62.2636 14.448 63.0316 14.928C63.8156 15.408 64.3916 16.048 64.7596 16.848C65.1276 17.648 65.3116 18.544 65.3116 19.536C65.3116 20.56 65.1196 21.536 64.7356 22.464C64.3676 23.392 63.8396 24.216 63.1516 24.936C62.4636 25.656 61.6476 26.224 60.7036 26.64C59.7756 27.04 58.7516 27.24 57.6316 27.24ZM58.1116 24.504C58.6076 24.504 59.0876 24.392 59.5516 24.168C60.0156 23.944 60.4236 23.624 60.7756 23.208C61.1436 22.792 61.4316 22.304 61.6396 21.744C61.8636 21.184 61.9756 20.576 61.9756 19.92C61.9756 19.328 61.8796 18.808 61.6876 18.36C61.5116 17.912 61.2396 17.568 60.8716 17.328C60.5196 17.072 60.0876 16.944 59.5756 16.944C59.0796 16.944 58.5996 17.056 58.1356 17.28C57.6876 17.504 57.2796 17.824 56.9116 18.24C56.5436 18.656 56.2476 19.152 56.0236 19.728C55.8156 20.288 55.7116 20.896 55.7116 21.552C55.7116 22.128 55.7996 22.64 55.9756 23.088C56.1676 23.536 56.4396 23.888 56.7916 24.144C57.1596 24.384 57.5996 24.504 58.1116 24.504Z" fill="white" style="fill:white;fill-opacity:1;"/>
<path d="M38.864 9.95996H42.152L40.688 16.848H47.792L49.256 9.95996H52.544L48.92 27H45.632L47.168 19.728H40.064L38.528 27H35.24L38.864 9.95996Z" fill="white" style="fill:white;fill-opacity:1;"/>
</g>
<defs>
<clipPath id="clip0_162_613">
<rect width="170" height="32" fill="white" style="fill:white;fill-opacity:1;"/>
</clipPath>
</defs>
</svg>
