<svg width="101" height="99" viewBox="0 0 101 99" fill="none" xmlns="http://www.w3.org/2000/svg">
<path d="M46.3593 16.3754C33.9973 17.5289 22.6032 27.2734 18.8953 38.9145C13.5079 55.8418 22.1833 68.1551 32.4387 80.5817C34.2891 82.825 48.6296 98.7475 49.9391 98.7475C55.3124 94.0839 60.4009 88.7694 65.0625 83.3487C71.0904 76.3357 79.3745 66.2586 81.5807 57.2571C87.0607 34.8454 69.5746 14.217 46.3665 16.3754H46.3593ZM49.9534 69.7615C38.424 69.7615 29.0725 60.4699 29.0725 48.9987C29.0725 37.5274 38.4169 28.2358 49.9534 28.2358C61.4898 28.2358 70.8342 37.5274 70.8342 48.9987C70.8342 60.4699 61.4898 69.7615 49.9534 69.7615Z" fill="#2563EB" style="fill:#2563EB;fill:color(display-p3 0.1451 0.3882 0.9216);fill-opacity:1;"/>
<path d="M62.8565 48.3759L55.6755 46.7695C55.4051 46.7059 55.2699 46.3945 55.4193 46.161L59.3478 39.9689C59.5756 39.608 59.1557 39.1834 58.7856 39.4098L52.5655 43.3232C52.3306 43.4718 52.0175 43.3445 51.9534 43.0685L50.3237 35.9281C50.2311 35.5106 49.6262 35.5106 49.5337 35.9281L47.9182 43.0685C47.8541 43.3374 47.541 43.4718 47.3061 43.3232L41.0788 39.4169C40.7159 39.1905 40.2889 39.608 40.5166 39.976L44.4522 46.161C44.6017 46.3945 44.4736 46.7059 44.196 46.7695L37.0151 48.3901C36.5952 48.4821 36.5952 49.0836 37.0151 49.1756L44.196 50.782C44.4665 50.8457 44.6017 51.1571 44.4522 51.3906L40.5237 57.5827C40.296 57.9436 40.7159 58.3682 41.086 58.1417L47.3061 54.2283C47.541 54.0797 47.8541 54.2071 47.9182 54.4831L49.5479 61.6234C49.6404 62.0409 50.2454 62.0409 50.3379 61.6234L51.9534 54.4831C52.0175 54.2142 52.3306 54.0797 52.5655 54.2283L58.7927 58.1346C59.1557 58.3611 59.5827 57.9436 59.355 57.5756L55.4193 51.3906C55.2699 51.1571 55.398 50.8457 55.6755 50.782L62.8565 49.1614C63.2764 49.0695 63.2764 48.4679 62.8565 48.3759Z" fill="#2563EB" style="fill:#2563EB;fill:color(display-p3 0.1451 0.3882 0.9216);fill-opacity:1;"/>
<path d="M33.8265 96.7377C33.371 96.7377 32.9013 96.6598 32.4458 96.49C23.0088 92.9517 14.9454 86.7384 9.11671 78.5082C3.15277 70.08 0 60.1656 0 49.8337C0 22.3551 22.4822 0 50.117 0C60.5574 0 70.5637 3.16326 79.0542 9.14302C80.8191 10.3885 81.2319 12.8158 79.9865 14.5637C78.7339 16.3187 76.2928 16.7292 74.5349 15.4908C67.3754 10.4451 58.9277 7.7843 50.1241 7.7843C26.8021 7.7843 7.82855 26.6506 7.82855 49.8408C7.82855 67.2493 18.8312 83.0727 35.2143 89.2081C37.2354 89.9653 38.2603 92.2086 37.4988 94.2184C36.9081 95.7752 35.4206 96.7377 33.8336 96.7377H33.8265Z" fill="#2563EB" style="fill:#2563EB;fill:color(display-p3 0.1451 0.3882 0.9216);fill-opacity:1;"/>
<path d="M65.489 97.0704C63.8734 97.0704 62.3647 96.0726 61.7953 94.4733C61.0765 92.4494 62.1441 90.2273 64.1866 89.5126C81.0678 83.5965 92.4121 67.6528 92.4121 49.8409C92.4121 41.8443 90.1489 34.0671 85.8646 27.3443C84.7045 25.5327 85.2454 23.1266 87.0744 21.9731C88.8963 20.8196 91.3161 21.3575 92.4761 23.1761C97.5576 31.1444 100.248 40.3653 100.248 49.8409C100.248 70.9435 86.804 89.8381 66.7985 96.851C66.3715 96.9997 65.9302 97.0704 65.4961 97.0704H65.489Z" fill="#2563EB" style="fill:#2563EB;fill:color(display-p3 0.1451 0.3882 0.9216);fill-opacity:1;"/>
</svg>
