<svg width="532" height="100" viewBox="0 0 532 100" fill="none" xmlns="http://www.w3.org/2000/svg">
<g clip-path="url(#clip0_79_2288)">
<path d="M46.3593 16.3754C33.9973 17.5289 22.6032 27.2734 18.8953 38.9145C13.5079 55.8418 22.1833 68.1551 32.4387 80.5817C34.2891 82.825 48.6296 98.7475 49.9391 98.7475C55.3124 94.0839 60.4009 88.7694 65.0625 83.3487C71.0904 76.3357 79.3745 66.2586 81.5807 57.2571C87.0607 34.8454 69.5746 14.217 46.3665 16.3754H46.3593ZM49.9534 69.7615C38.424 69.7615 29.0725 60.4699 29.0725 48.9987C29.0725 37.5274 38.4169 28.2358 49.9534 28.2358C61.4898 28.2358 70.8342 37.5274 70.8342 48.9987C70.8342 60.4699 61.4898 69.7615 49.9534 69.7615Z" fill="#2563EB" style="fill:#2563EB;fill:color(display-p3 0.1451 0.3882 0.9216);fill-opacity:1;"/>
<path d="M62.8565 48.3759L55.6755 46.7695C55.4051 46.7059 55.2699 46.3945 55.4193 46.161L59.3478 39.9689C59.5756 39.608 59.1557 39.1834 58.7856 39.4098L52.5655 43.3232C52.3306 43.4718 52.0175 43.3445 51.9534 43.0685L50.3237 35.9281C50.2311 35.5106 49.6262 35.5106 49.5337 35.9281L47.9182 43.0685C47.8541 43.3374 47.541 43.4718 47.3061 43.3232L41.0788 39.4169C40.7159 39.1905 40.2889 39.608 40.5166 39.976L44.4522 46.161C44.6017 46.3945 44.4736 46.7059 44.196 46.7695L37.0151 48.3901C36.5952 48.4821 36.5952 49.0836 37.0151 49.1756L44.196 50.782C44.4665 50.8457 44.6017 51.1571 44.4522 51.3906L40.5237 57.5827C40.296 57.9436 40.7159 58.3682 41.086 58.1417L47.3061 54.2283C47.541 54.0797 47.8541 54.2071 47.9182 54.4831L49.5479 61.6234C49.6404 62.0409 50.2454 62.0409 50.3379 61.6234L51.9534 54.4831C52.0175 54.2142 52.3306 54.0797 52.5655 54.2283L58.7927 58.1346C59.1557 58.3611 59.5827 57.9436 59.355 57.5756L55.4193 51.3906C55.2699 51.1571 55.398 50.8457 55.6755 50.782L62.8565 49.1614C63.2764 49.0695 63.2764 48.4679 62.8565 48.3759Z" fill="#2563EB" style="fill:#2563EB;fill:color(display-p3 0.1451 0.3882 0.9216);fill-opacity:1;"/>
<path d="M33.8265 96.7377C33.371 96.7377 32.9013 96.6598 32.4458 96.49C23.0088 92.9517 14.9454 86.7384 9.11671 78.5082C3.15277 70.08 0 60.1656 0 49.8337C0 22.3551 22.4822 0 50.117 0C60.5574 0 70.5637 3.16326 79.0542 9.14302C80.8191 10.3885 81.2319 12.8158 79.9865 14.5637C78.7339 16.3187 76.2928 16.7292 74.5349 15.4908C67.3754 10.4451 58.9277 7.7843 50.1241 7.7843C26.8021 7.7843 7.82855 26.6506 7.82855 49.8408C7.82855 67.2493 18.8312 83.0727 35.2143 89.2081C37.2354 89.9653 38.2603 92.2086 37.4988 94.2184C36.9081 95.7752 35.4206 96.7377 33.8336 96.7377H33.8265Z" fill="#2563EB" style="fill:#2563EB;fill:color(display-p3 0.1451 0.3882 0.9216);fill-opacity:1;"/>
<path d="M65.489 97.0703C63.8734 97.0703 62.3647 96.0725 61.7953 94.4732C61.0765 92.4492 62.1441 90.2272 64.1866 89.5124C81.0678 83.5964 92.4121 67.6527 92.4121 49.8408C92.4121 41.8442 90.1489 34.067 85.8646 27.3442C84.7045 25.5325 85.2454 23.1265 87.0744 21.973C88.8963 20.8195 91.3161 21.3573 92.4761 23.176C97.5576 31.1443 100.248 40.3652 100.248 49.8408C100.248 70.9433 86.804 89.838 66.7985 96.8509C66.3715 96.9995 65.9302 97.0703 65.4961 97.0703H65.489Z" fill="#2563EB" style="fill:#2563EB;fill:color(display-p3 0.1451 0.3882 0.9216);fill-opacity:1;"/>
<path d="M470.579 85.125C468.026 85.125 465.698 84.7251 463.595 83.9251C461.492 83.1251 459.689 82 458.187 80.55C456.735 79.1 455.608 77.3501 454.807 75.3001C454.006 73.2501 453.605 70.9501 453.605 68.4001C453.605 65.0501 454.281 61.9 455.633 58.95C456.985 56 458.838 53.425 461.191 51.225C463.544 49.025 466.298 47.3 469.453 46.05C472.657 44.8 476.062 44.175 479.667 44.175C484.474 44.175 488.204 45.2 490.858 47.25C493.562 49.25 494.914 52.05 494.914 55.65C494.914 60.1 492.861 63.4501 488.755 65.7001C484.699 67.9501 478.666 69.0751 470.654 69.0751H468.476C468.476 71.2251 468.827 72.7501 469.528 73.6501C470.279 74.5001 471.531 74.925 473.283 74.925C476.488 74.925 478.941 73.5751 480.644 70.8751L491.834 74.4751C490.733 76.0751 489.381 77.525 487.779 78.825C486.226 80.125 484.499 81.2501 482.596 82.2001C480.744 83.1501 478.791 83.875 476.738 84.375C474.685 84.875 472.632 85.125 470.579 85.125ZM477.114 54.3C475.662 54.3 474.31 54.875 473.058 56.025C471.856 57.125 470.855 58.6251 470.054 60.525H470.579C474.435 60.525 477.114 60.3 478.616 59.85C480.168 59.35 480.944 58.475 480.944 57.225C480.944 56.375 480.594 55.675 479.893 55.125C479.192 54.575 478.265 54.3 477.114 54.3Z" fill="#162B4E" style="fill:#162B4E;fill:color(display-p3 0.0863 0.1686 0.3059);fill-opacity:1;"/>
<path d="M437.397 85.125C434.242 85.125 431.864 84.45 430.262 83.1C428.66 81.7 427.858 79.7 427.858 77.1C427.858 76.55 427.883 76 427.933 75.45C427.984 74.9 428.084 74.325 428.234 73.725L437.622 29.625H451.892L443.556 68.7C443.405 69.3 443.33 69.85 443.33 70.35C443.33 72.25 444.231 73.2 446.034 73.2C446.585 73.2 447.211 73.1 447.912 72.9C448.613 72.7 449.289 72.425 449.94 72.075L449.489 82.575C447.686 83.375 445.684 84 443.48 84.45C441.277 84.9 439.249 85.125 437.397 85.125Z" fill="#162B4E" style="fill:#162B4E;fill:color(display-p3 0.0863 0.1686 0.3059);fill-opacity:1;"/>
<path d="M393.423 85.125C391.22 85.125 389.242 84.75 387.489 84C385.787 83.2 384.335 82.1 383.133 80.7C381.932 79.3 381.005 77.625 380.354 75.675C379.754 73.725 379.453 71.5751 379.453 69.2251C379.453 65.8251 380.029 62.625 381.181 59.625C382.332 56.575 383.884 53.9 385.837 51.6001C387.79 49.3 390.043 47.5001 392.597 46.2001C395.2 44.8501 397.929 44.175 400.783 44.175C403.187 44.175 405.239 44.75 406.942 45.9C408.694 47.05 409.871 48.675 410.472 50.775L411.674 45.2251H426.019L420.987 68.625C420.836 69.375 420.761 69.975 420.761 70.425C420.761 71.675 421.437 72.325 422.789 72.375L420.236 84.375C417.732 84.875 415.704 85.125 414.152 85.125C411.899 85.125 410.121 84.7001 408.82 83.8501C407.518 83.0001 406.867 81.5001 406.867 79.3501C406.867 78.8501 406.892 78.475 406.942 78.225C405.139 80.625 403.036 82.375 400.633 83.475C398.28 84.575 395.876 85.125 393.423 85.125ZM399.882 73.125C401.084 73.125 402.21 72.8 403.262 72.15C404.313 71.45 405.465 70.4251 406.717 69.0751L408.219 62.025C407.968 60.275 407.342 58.875 406.341 57.825C405.39 56.725 404.238 56.175 402.886 56.175C401.835 56.175 400.808 56.475 399.807 57.075C398.805 57.675 397.904 58.475 397.103 59.475C396.302 60.425 395.651 61.55 395.15 62.85C394.7 64.15 394.474 65.5 394.474 66.9C394.474 68.8 394.925 70.325 395.826 71.475C396.778 72.575 398.129 73.125 399.882 73.125Z" fill="#162B4E" style="fill:#162B4E;fill:color(display-p3 0.0863 0.1686 0.3059);fill-opacity:1;"/>
<path d="M352.587 85.05C350.735 85.05 348.857 84.9001 346.955 84.6001C345.052 84.3001 343.199 83.875 341.397 83.325C339.594 82.775 337.867 82.125 336.214 81.375C334.562 80.625 333.06 79.775 331.708 78.825L340.721 66.075C341.071 66.325 341.697 66.775 342.598 67.425C343.5 68.075 344.601 68.7251 345.903 69.3751C347.255 70.0251 348.757 70.6001 350.409 71.1001C352.062 71.6001 353.789 71.8501 355.592 71.8501C357.294 71.8501 358.371 71.5751 358.821 71.0251C359.272 70.4251 359.497 69.775 359.497 69.075C359.497 68.425 359.222 67.875 358.671 67.425C358.12 66.925 357.394 66.475 356.493 66.075C355.592 65.675 354.54 65.3001 353.339 64.9501C352.187 64.55 350.985 64.1 349.733 63.6C346.429 62.3 343.95 60.725 342.298 58.875C340.696 57.025 339.895 54.675 339.895 51.825C339.895 48.475 340.571 45.5 341.922 42.9C343.274 40.25 345.052 38.025 347.255 36.225C349.458 34.425 351.937 33.05 354.69 32.1C357.494 31.15 360.323 30.675 363.177 30.675C365.03 30.675 366.807 30.875 368.51 31.2751C370.262 31.625 371.89 32.1 373.392 32.7C374.944 33.25 376.371 33.875 377.673 34.575C378.975 35.225 380.126 35.85 381.128 36.45L372.265 48.525C372.215 48.475 371.815 48.2 371.064 47.7001C370.363 47.1501 369.436 46.5751 368.285 45.9751C367.133 45.375 365.831 44.85 364.379 44.4C362.927 43.9 361.45 43.65 359.948 43.65C358.846 43.65 357.895 43.9 357.094 44.4C356.343 44.9 355.967 45.7 355.967 46.8C355.967 47.95 356.693 48.8251 358.145 49.4251C359.597 50.0251 361.525 50.75 363.928 51.6001C365.731 52.3001 367.358 53.025 368.81 53.775C370.312 54.525 371.589 55.4001 372.641 56.4C373.742 57.4001 374.568 58.5751 375.119 59.9251C375.72 61.275 376.02 62.875 376.02 64.725C376.02 68.525 375.294 71.7251 373.842 74.3251C372.44 76.8751 370.613 78.95 368.36 80.55C366.106 82.15 363.578 83.3 360.774 84C358.02 84.7 355.291 85.05 352.587 85.05Z" fill="#162B4E" style="fill:#162B4E;fill:color(display-p3 0.0863 0.1686 0.3059);fill-opacity:1;"/>
<path d="M309.513 85.125C306.959 85.125 304.631 84.7251 302.528 83.9251C300.425 83.1251 298.623 82 297.121 80.55C295.668 79.1 294.542 77.3501 293.741 75.3001C292.94 73.2501 292.539 70.9501 292.539 68.4001C292.539 65.0501 293.215 61.9 294.567 58.95C295.919 56 297.771 53.425 300.125 51.225C302.478 49.025 305.232 47.3 308.386 46.05C311.591 44.8 314.996 44.175 318.601 44.175C323.408 44.175 327.138 45.2 329.792 47.25C332.495 49.25 333.847 52.05 333.847 55.65C333.847 60.1 331.794 63.4501 327.689 65.7001C323.633 67.9501 317.599 69.0751 309.588 69.0751H307.41C307.41 71.2251 307.761 72.7501 308.462 73.6501C309.213 74.5001 310.464 74.925 312.217 74.925C315.421 74.925 317.875 73.5751 319.577 70.8751L330.768 74.4751C329.666 76.0751 328.314 77.525 326.712 78.825C325.16 80.125 323.433 81.2501 321.53 82.2001C319.677 83.1501 317.725 83.875 315.672 84.375C313.619 84.875 311.566 85.125 309.513 85.125ZM316.047 54.3C314.595 54.3 313.243 54.875 311.991 56.025C310.79 57.125 309.788 58.6251 308.987 60.525H309.513C313.368 60.525 316.047 60.3 317.549 59.85C319.102 59.35 319.878 58.475 319.878 57.225C319.878 56.375 319.527 55.675 318.826 55.125C318.125 54.575 317.199 54.3 316.047 54.3Z" fill="#162B4E" style="fill:#162B4E;fill:color(display-p3 0.0863 0.1686 0.3059);fill-opacity:1;"/>
<path d="M265.673 85.05C263.821 85.05 261.943 84.9001 260.04 84.6001C258.138 84.3001 256.285 83.875 254.483 83.325C252.68 82.775 250.953 82.125 249.3 81.375C247.648 80.625 246.146 79.775 244.794 78.825L253.807 66.075C254.157 66.325 254.783 66.775 255.684 67.425C256.586 68.075 257.687 68.7251 258.989 69.3751C260.341 70.0251 261.843 70.6001 263.495 71.1001C265.148 71.6001 266.875 71.8501 268.678 71.8501C270.38 71.8501 271.457 71.5751 271.907 71.0251C272.358 70.4251 272.583 69.775 272.583 69.075C272.583 68.425 272.308 67.875 271.757 67.425C271.206 66.925 270.48 66.475 269.579 66.075C268.678 65.675 267.626 65.3001 266.424 64.9501C265.273 64.55 264.071 64.1 262.819 63.6C259.515 62.3 257.036 60.725 255.384 58.875C253.782 57.025 252.98 54.675 252.98 51.825C252.98 48.475 253.656 45.5 255.008 42.9C256.36 40.25 258.138 38.025 260.341 36.225C262.544 34.425 265.022 33.05 267.776 32.1C270.58 31.15 273.409 30.675 276.263 30.675C278.116 30.675 279.893 30.875 281.596 31.2751C283.348 31.625 284.976 32.1 286.478 32.7C288.03 33.25 289.457 33.875 290.759 34.575C292.061 35.225 293.212 35.85 294.214 36.45L285.351 48.525C285.301 48.475 284.9 48.2 284.149 47.7001C283.448 47.1501 282.522 46.5751 281.371 45.9751C280.219 45.375 278.917 44.85 277.465 44.4C276.013 43.9 274.536 43.65 273.034 43.65C271.932 43.65 270.981 43.9 270.18 44.4C269.429 44.9 269.053 45.7 269.053 46.8C269.053 47.95 269.779 48.8251 271.231 49.4251C272.683 50.0251 274.611 50.75 277.014 51.6001C278.817 52.3001 280.444 53.025 281.896 53.775C283.398 54.525 284.675 55.4001 285.727 56.4C286.828 57.4001 287.654 58.5751 288.205 59.9251C288.806 61.275 289.106 62.875 289.106 64.725C289.106 68.525 288.38 71.7251 286.928 74.3251C285.526 76.8751 283.699 78.95 281.446 80.55C279.192 82.15 276.664 83.3 273.86 84C271.106 84.7 268.377 85.05 265.673 85.05Z" fill="#162B4E" style="fill:#162B4E;fill:color(display-p3 0.0863 0.1686 0.3059);fill-opacity:1;"/>
<path d="M202.286 91.3501C203.688 91.3501 204.915 91.3001 205.966 91.2001C206.968 91.1001 207.869 90.9001 208.67 90.6001C209.471 90.3501 210.172 90.0001 210.773 89.5501C211.424 89.1001 212.05 88.5001 212.651 87.7501L214.829 85.2001L209.647 44.925H224.142L225.043 72.3L227.597 68.1C229.399 65.1 231.027 61.625 232.479 57.675C233.981 53.725 235.157 49.475 236.009 44.925H249.678C248.977 47.325 248.251 49.6 247.5 51.75C246.749 53.8501 245.797 56.075 244.646 58.425C243.494 60.775 242.067 63.4 240.365 66.3C238.712 69.2 236.66 72.65 234.206 76.6501L228.198 86.3251C226.395 89.2251 224.593 91.65 222.79 93.6C221.038 95.6 219.185 97.2001 217.232 98.4001C215.33 99.6501 213.277 100.55 211.074 101.1C208.92 101.65 206.542 101.925 203.938 101.925L202.286 91.3501Z" fill="#162B4E" style="fill:#162B4E;fill:color(display-p3 0.0863 0.1686 0.3059);fill-opacity:1;"/>
<path d="M180.643 85.125C177.789 85.125 175.285 84.7001 173.132 83.8501C171.029 82.9501 169.277 81.7501 167.875 80.2501C166.473 78.7501 165.422 77 164.721 75C164.07 73 163.744 70.9 163.744 68.7C163.744 65.65 164.32 62.65 165.472 59.7C166.673 56.75 168.376 54.125 170.579 51.825C172.782 49.525 175.461 47.675 178.615 46.275C181.77 44.875 185.35 44.175 189.355 44.175C192.209 44.175 194.688 44.625 196.791 45.525C198.944 46.375 200.721 47.55 202.123 49.05C203.525 50.55 204.552 52.3 205.203 54.3C205.904 56.25 206.254 58.35 206.254 60.6001C206.254 63.65 205.653 66.65 204.452 69.6C203.3 72.55 201.598 75.175 199.344 77.475C197.141 79.775 194.462 81.6251 191.308 83.0251C188.154 84.4251 184.599 85.125 180.643 85.125ZM183.197 73.125C184.298 73.125 185.35 72.85 186.351 72.3C187.352 71.75 188.229 71.0001 188.98 70.0501C189.731 69.1001 190.307 67.9751 190.707 66.6751C191.158 65.3251 191.383 63.8751 191.383 62.3251C191.383 60.425 190.983 58.925 190.181 57.825C189.38 56.725 188.254 56.175 186.802 56.175C185.7 56.175 184.649 56.45 183.647 57C182.646 57.55 181.77 58.3001 181.018 59.25C180.267 60.2 179.667 61.35 179.216 62.7001C178.815 64 178.615 65.425 178.615 66.975C178.615 68.875 179.016 70.375 179.817 71.475C180.618 72.575 181.745 73.125 183.197 73.125Z" fill="#162B4E" style="fill:#162B4E;fill:color(display-p3 0.0863 0.1686 0.3059);fill-opacity:1;"/>
<path d="M120.645 31.125H135.29L131.084 50.775H147.007L151.213 31.125H165.858L154.517 84.375H139.872L144.303 63.525H128.381L123.949 84.375H109.304L120.645 31.125Z" fill="#162B4E" style="fill:#162B4E;fill:color(display-p3 0.0863 0.1686 0.3059);fill-opacity:1;"/>
</g>
<defs>
<clipPath id="clip0_79_2288">
<rect width="532" height="100" fill="white" style="fill:white;fill-opacity:1;"/>
</clipPath>
</defs>
</svg>
